<?xml version="1.0" encoding="UTF-8"?>
<svg data-bbox="0 0 261.119 86.7" viewBox="0 0 261.1 86.6" xmlns="http://www.w3.org/2000/svg" data-type="ugc">
    <g>
        <path fill="#ec2027" d="M130.6 43.2c0 22.699-28.743 41.1-64.2 41.1S2.2 65.899 2.2 43.2 30.943 2.1 66.4 2.1s64.2 18.401 64.2 41.1"/>
        <path d="M66.4 2.1c35.5 0 64.2 18.4 64.2 41.1s-28.8 41.1-64.2 41.1S2.1 65.9 2.1 43.2 30.9 2.1 66.4 2.1m0-2.1C48.8 0 32.3 4.4 19.8 12.4 7 20.5 0 31.5 0 43.2s7 22.7 19.8 30.9c12.5 8 29 12.4 46.6 12.4s34.1-4.4 46.6-12.4c12.8-8.2 19.8-19.1 19.8-30.9s-7-22.7-19.8-30.9C100.5 4.4 83.9 0 66.4 0"/>
        <linearGradient y2="70.995" x2="38.321" y1="13.181" x1="38.321" gradientUnits="userSpaceOnUse" id="d31f9007-0ad2-4d9d-8534-e3c8b2c3d95b">
            <stop offset=".486" stop-color="#ffffff"/>
            <stop offset=".548" stop-color="#dfdfdf"/>
            <stop offset=".61" stop-color="#c6c6c6"/>
            <stop offset=".667" stop-color="#b8b8b8"/>
            <stop offset=".714" stop-color="#b3b3b3"/>
        </linearGradient>
        <path d="M56.4 34.8H42l.9-5q.9-4.8.6-6c-.3-1.2-.7-1.2-1.7-1.2-.9 0-1.6.3-2 1s-.9 2.4-1.4 5.3l-4.7 26.6c-.4 2.5-.6 4.1-.4 4.9s.8 1.2 1.7 1.2c1.1 0 1.8-.4 2.4-1.3.5-.9 1-2.6 1.5-5.2l1.2-6.6h-2.9l1.5-8.4h16.9l-5.3 29.8h-9.1l-.6-4c-1.3 1.7-2.8 3-4.4 3.9s-3.5 1.3-5.5 1.3c-2.4 0-4.6-.6-6.5-1.8s-3.3-2.6-4-4.4c-.8-1.7-1.2-3.6-1.1-5.5s.4-4.8 1.1-8.6L23 34.3c.9-5.3 1.9-9.1 2.9-11.5s3-4.6 6.1-6.6 6.7-3 11-3c4.2 0 7.6.9 10.1 2.6s3.9 3.8 4.4 6.2.2 5.9-.6 10.4z" fill="url(#d31f9007-0ad2-4d9d-8534-e3c8b2c3d95b)"/>
        <path d="M43 13.2c4.2 0 7.6.9 10.1 2.6s3.9 3.8 4.4 6.2c.4 2.4.2 5.9-.6 10.4l-.4 2.4H42l.9-5q.9-4.8.6-6c-.3-1.2-.7-1.2-1.7-1.2-.9 0-1.6.3-2 1s-.9 2.4-1.4 5.3l-4.7 26.6c-.4 2.5-.6 4.1-.4 4.9s.8 1.2 1.7 1.2c1.1 0 1.8-.4 2.4-1.3.5-.9 1-2.6 1.5-5.2l1.2-6.6h-2.9l1.5-8.4h16.9l-5.3 29.8h-9.1l-.6-4c-1.3 1.7-2.8 3-4.4 3.9s-3.5 1.3-5.5 1.3c-2.4 0-4.6-.6-6.5-1.8s-3.3-2.6-4-4.4c-.8-1.7-1.2-3.6-1.1-5.5s.4-4.8 1.1-8.6L23 34.3c.9-5.3 1.9-9.1 2.9-11.5s3-4.6 6.1-6.6c3-2 6.7-3 11-3m0-2.2c-4.7 0-8.8 1.1-12.2 3.4-3.4 2.2-5.7 4.8-6.9 7.6-1.1 2.6-2.1 6.5-3 12L18 50.5c-.7 4-1.1 6.9-1.1 8.9-.1 2.2.4 4.4 1.3 6.4 1 2.1 2.6 3.9 4.9 5.3 2.2 1.4 4.8 2.1 7.6 2.1 2.4 0 4.6-.5 6.5-1.5.7-.3 1.3-.8 1.9-1.2.3.9 1.1 1.6 2.1 1.6h9.1c1.1 0 2-.8 2.2-1.8l5.3-29.8c.1-.6-.1-1.3-.5-1.8s-1-.8-1.7-.8H39l1.5-8.6c.3-1.8.6-2.8.8-3.5-.1.8-.3 1.9-.5 3.6l-.9 5c-.1.6.1 1.3.5 1.8s1 .8 1.7.8h14.4c1.1 0 2-.8 2.2-1.8l.4-2.4c.9-4.8 1-8.5.6-11.2-.5-3-2.3-5.5-5.3-7.6q-4.35-3-11.4-3m-7.6 48.3c0-.6.1-1.6.4-3.4l.9-5.2h.7l-.7 4c-.6 3.1-1 4.2-1.2 4.5 0 0 0 .1-.1.1"/>
        <linearGradient y2="70.995" x2="76.828" y1="13.181" x1="76.828" gradientUnits="userSpaceOnUse" id="253af42c-9369-4488-81dc-fc07bfa01799">
            <stop offset=".486" stop-color="#ffffff"/>
            <stop offset=".548" stop-color="#dfdfdf"/>
            <stop offset=".61" stop-color="#c6c6c6"/>
            <stop offset=".667" stop-color="#b8b8b8"/>
            <stop offset=".714" stop-color="#b3b3b3"/>
        </linearGradient>
        <path d="M94.5 38.5H80l1.7-9.6c.5-2.8.6-4.6.5-5.2-.2-.7-.8-1-1.9-1-1.2 0-2 .4-2.5 1.3-.5.8-1 2.7-1.4 5.5l-4.5 25.8c-.5 2.7-.6 4.5-.5 5.3.2.8.8 1.2 1.9 1.2s1.8-.4 2.3-1.2 1-2.8 1.5-5.8l1.2-7h14.4l-.4 2.2c-1 5.7-2.1 9.8-3.4 12.2-1.2 2.4-3.4 4.5-6.5 6.3C79.5 70.1 76 71 71.9 71c-4.2 0-7.6-.8-10-2.3-2.5-1.5-3.9-3.6-4.3-6.4-.4-2.7-.1-6.8.8-12.2l2.9-16.2c.7-4 1.4-7 2-9s1.8-3.9 3.5-5.8 3.8-3.3 6.4-4.4 5.5-1.6 8.6-1.6c4.2 0 7.6.8 10.1 2.5 2.5 1.6 3.9 3.7 4.4 6.1s.2 6.3-.7 11.4z" fill="url(#253af42c-9369-4488-81dc-fc07bfa01799)"/>
        <path d="M81.7 13.2c4.2 0 7.6.8 10.1 2.5 2.5 1.6 3.9 3.7 4.4 6.1.4 2.5.2 6.3-.7 11.4l-.9 5.3H80l1.7-9.6c.5-2.8.6-4.6.5-5.2-.2-.7-.8-1-1.9-1-1.2 0-2 .4-2.5 1.3-.5.8-1 2.7-1.4 5.5l-4.5 25.8c-.5 2.7-.6 4.5-.5 5.3.2.8.8 1.2 1.9 1.2s1.8-.4 2.3-1.2 1-2.8 1.5-5.8l1.2-7h14.4l-.4 2.2c-1 5.7-2.1 9.8-3.4 12.2-1.2 2.4-3.4 4.5-6.5 6.3C79.5 70.1 76 71 71.9 71c-4.2 0-7.6-.8-10-2.3s-3.9-3.6-4.3-6.4c-.4-2.7-.1-6.8.8-12.2l2.9-16.2c.7-4 1.4-7 2-9s1.8-3.9 3.5-5.8 3.8-3.3 6.4-4.4c2.5-1 5.3-1.5 8.5-1.5m0-2.2c-3.4 0-6.6.6-9.4 1.8-2.9 1.2-5.3 2.8-7.2 4.9q-2.85 3.15-3.9 6.6c-.7 2.1-1.3 5.1-2.1 9.3l-2.9 16.2c-1 5.7-1.3 10-.8 12.9.5 3.4 2.3 6 5.3 7.9 2.8 1.7 6.6 2.6 11.2 2.6 4.4 0 8.4-1 11.8-3s5.9-4.4 7.3-7.2c1.3-2.6 2.5-6.8 3.6-12.8L95 48c.1-.6-.1-1.3-.5-1.8s-1-.8-1.7-.8H78.4c-1.1 0-2 .8-2.2 1.8l-1.2 7c-.7 4-1.2 4.9-1.3 5.1 0 .1-.1.1-.3.1 0-.6.1-1.7.5-3.9l4.5-25.8c.6-3.6 1.1-4.6 1.2-4.8 0-.1.1-.1.3-.1 0 .6-.1 1.7-.5 3.7l-1.7 9.6c-.1.6.1 1.3.5 1.8s1 .8 1.7.8h14.4c1.1 0 2-.8 2.2-1.8l.9-5.3c1-5.5 1.2-9.5.7-12.2-.5-3.1-2.3-5.6-5.3-7.6-2.7-1.9-6.5-2.8-11.1-2.8"/>
        <path d="m132.2 2.2-7.5 42.4h-11l3.1-17.8h-3.3l-3.1 17.8h-11l7.5-42.4h11l-2.7 15.2h3.3l2.7-15.2z" fill="#ed1c24"/>
        <path d="m132.2 2.2-7.5 42.4h-11l3.1-17.8h-3.3l-3.1 17.8h-11l7.5-42.4h11l-2.7 15.2h3.3l2.7-15.2zm0-2.1h-11c-.7 0-1.2.3-1.7.8-.4-.5-1-.8-1.7-.8h-11c-1.1 0-2 .8-2.2 1.8l-7.5 42.4c-.1.6.1 1.3.5 1.8s1 .8 1.7.8h11c.7 0 1.2-.3 1.7-.8.4.5 1 .8 1.7.8h11c1.1 0 2-.8 2.2-1.8l7.5-42.4c.1-.6-.1-1.3-.5-1.8-.5-.5-1.1-.8-1.7-.8"/>
        <path d="M133.2 15.4h12.6l-1 5.8h-5.1l-1 5.5h4.7l-1 5.5h-4.7l-1.1 6.4h5.6l-1 5.8h-13.1z" fill="#ed1c24"/>
        <path d="m145.9 15.4-1 5.8h-5.1l-1 5.5h4.7l-1 5.5h-4.7l-1.1 6.4h5.6l-1 5.8h-13.1l5.1-29.1h12.6m0-2.1h-12.6c-1.1 0-2 .8-2.2 1.8L126 44.1c-.1.6.1 1.3.5 1.8s1 .8 1.7.8h13.1c1.1 0 2-.8 2.2-1.8l1-5.8c.1-.6-.1-1.3-.5-1.8s-1-.8-1.7-.8h-3l.4-2h2.9c1.1 0 2-.8 2.2-1.8l1-5.5c.1-.6-.1-1.3-.5-1.8s-1-.8-1.7-.8h-2.1l.2-1.2h3.2c1.1 0 2-.8 2.2-1.8l1-5.8c.1-.6-.1-1.3-.5-1.8-.5-.5-1.1-.8-1.7-.8"/>
        <path d="m162.5 15.4-.8 29.1H154l.5-5.2h-2.7l-1.4 5.2h-7.8l9-29.1zm-7.3 18.7c.2-3.3.5-7.4 1-12.2-1.8 5.6-3 9.7-3.6 12.2z" fill="#ed1c24"/>
        <path d="m162.5 15.4-.8 29.1H154l.5-5.2h-2.7l-1.4 5.2h-7.8l9-29.1zm-6.3 6.5c-1.8 5.6-3 9.7-3.6 12.2h2.6c.2-3.3.5-7.3 1-12.2m6.3-8.7h-10.9c-1 0-1.8.6-2.1 1.5l-9 29.1c-.2.7-.1 1.4.3 1.9.4.6 1.1.9 1.8.9h7.8c.7 0 1.4-.4 1.8-.9l.2.2c.4.5 1 .7 1.6.7h7.7c1.2 0 2.2-.9 2.2-2.1l.8-29.1c0-.6-.2-1.2-.6-1.6-.5-.3-1-.6-1.6-.6"/>
        <path d="m182.7 15.4-1 5.8h-4.5L173 44.5h-7.6l4.1-23.3H165l1-5.8z" fill="#ed1c24"/>
        <path d="m182.7 15.4-1 5.8h-4.5L173 44.5h-7.6l4.1-23.3H165l1-5.8zm0-2.2h-16.6c-1.1 0-2 .8-2.2 1.8l-1 5.8c-.1.6.1 1.3.5 1.8s1 .8 1.7.8h1.9l-3.7 20.7c-.1.6.1 1.3.5 1.8s1 .8 1.7.8h7.6c1.1 0 2-.8 2.2-1.8l3.8-21.5h2.7c1.1 0 2-.8 2.2-1.8l1-5.8c.1-.6-.1-1.3-.5-1.8-.6-.5-1.2-.8-1.8-.8"/>
        <path d="M192.2 15.4 187 44.5h-7.6l5.1-29.1z" fill="#ed1c24"/>
        <path d="M192.2 15.4 187 44.5h-7.6l5.1-29.1zm0-2.2h-7.6c-1.1 0-2 .8-2.2 1.8l-5.1 29.1c-.1.6.1 1.3.5 1.8s1 .8 1.7.8h7.6c1.1 0 2-.8 2.2-1.8l5.1-29.1c.1-.6-.1-1.3-.5-1.8-.5-.5-1.1-.8-1.7-.8"/>
        <path d="m211.8 15.4-5.1 29.1H200l-1.6-13.2-2.4 13.2h-6.3l5.1-29.1h6.3l1.9 13.1 2.3-13.1z" fill="#ed1c24"/>
        <path d="m211.8 15.4-5.1 29.1H200l-1.6-13.2-2.4 13.2h-6.3l5.1-29.1h6.3l1.9 13.1 2.3-13.1zm0-2.2h-6.3c-1 0-1.9.7-2.1 1.7-.2-1-1.1-1.7-2.1-1.7H195c-1.1 0-2 .8-2.2 1.8l-5.1 29.1c-.1.6.1 1.3.5 1.8s1 .8 1.7.8h6.3c.9 0 1.6-.5 2-1.2.4.7 1.1 1.2 2 1.2h6.6c1.1 0 2-.8 2.2-1.8l5.1-29.1c.1-.6-.1-1.3-.5-1.8-.6-.5-1.2-.8-1.8-.8"/>
        <path d="M230 26.1h-7.6l.5-2.6c.3-1.7.4-2.7.3-3.1q-.15-.6-.9-.6c-.5 0-.8.2-1 .5s-.5 1.3-.7 2.8L218 37c-.2 1.3-.3 2.2-.2 2.6q.15.6.9.6c.6 0 1-.2 1.2-.7.3-.5.5-1.4.8-2.7l.6-3.5h-1.5l.8-4.4h8.9l-2.8 15.6H222l-.3-2.1c-.7.9-1.4 1.6-2.3 2s-1.8.7-2.9.7c-1.3 0-2.4-.3-3.4-.9s-1.7-1.4-2.1-2.3-.6-1.9-.6-2.9q0-1.5.6-4.5l1.5-8.7c.5-2.8 1-4.8 1.5-6.1s1.6-2.4 3.2-3.5c1.6-1 3.5-1.6 5.8-1.6 2.2 0 4 .5 5.3 1.4s2.1 2 2.3 3.2c.2 1.3.1 3.1-.3 5.5z" fill="#ed1c24"/>
        <path d="M222.9 14.8c2.2 0 4 .5 5.3 1.4s2.1 2 2.3 3.2.1 3.1-.3 5.5l-.2 1.3h-7.6l.5-2.6c.3-1.7.4-2.7.3-3.1q-.15-.6-.9-.6c-.5 0-.8.2-1 .5s-.5 1.3-.7 2.8L218 37c-.2 1.3-.3 2.2-.2 2.6q.15.6.9.6c.6 0 1-.2 1.2-.7.3-.5.5-1.4.8-2.7l.6-3.5h-1.5l.8-4.4h8.9l-2.8 15.6H222l-.3-2.1c-.7.9-1.4 1.6-2.3 2s-1.8.7-2.9.7c-1.3 0-2.4-.3-3.4-.9s-1.7-1.4-2.1-2.3-.6-1.9-.6-2.9q0-1.5.6-4.5l1.5-8.7c.5-2.8 1-4.8 1.5-6.1s1.6-2.4 3.2-3.5c1.5-.9 3.5-1.4 5.7-1.4m0-2.2c-2.7 0-5 .6-7 1.9s-3.3 2.8-4 4.5c-.6 1.4-1.1 3.6-1.7 6.5l-1.5 8.7q-.6 3.15-.6 4.8c0 1.3.2 2.6.8 3.8.6 1.3 1.6 2.4 3 3.2 1.3.8 2.9 1.3 4.6 1.3q2.1 0 3.9-.9c.1-.1.2-.1.3-.2.4.3.8.5 1.3.5h4.8c1.1 0 2-.8 2.2-1.8l2.8-15.6q.15-.75-.3-1.5c.4-.3.7-.8.8-1.3l.2-1.3c.5-2.7.6-4.7.3-6.2-.3-1.8-1.4-3.4-3.2-4.7-1.8-1.1-4-1.7-6.7-1.7"/>
        <path d="m258.9 34.1-.9 4.8-2.2 1.3 1.7 4.8h-6.6l-.6-1.6c-2.5 1.5-4.7 2.2-6.7 2.2-2.1 0-3.5-.7-4.4-2.1s-1.1-3-.8-5c.3-1.6.8-2.8 1.6-3.7s1.9-1.6 3.3-2.2c-1.6-1.4-2.3-3.2-1.9-5.5.4-2 1.3-3.6 2.9-4.8s3.5-1.8 5.9-1.8c2.1 0 3.7.6 4.7 1.8s1.4 2.7 1 4.5c-.3 1.9-1.4 3.6-3.1 5.1l1.7 4.6zm-10.4 6.1-1.6-3.9c-1 .8-1.6 1.7-1.8 2.6-.1.7-.1 1.2.1 1.5s.6.5 1.1.5c.6 0 1.3-.2 2.2-.7m.3-11.1c1-1.1 1.6-2.1 1.7-3 .1-.4 0-.8-.2-1.1s-.5-.5-.9-.5-.7.1-1 .4c-.2.3-.4.7-.5 1.2-.1 1 .2 2.1.9 3" fill="#ed1c24"/>
        <path d="M250.3 20.6c2.1 0 3.7.6 4.7 1.8s1.4 2.7 1 4.5c-.3 1.9-1.4 3.6-3.1 5.1l1.7 4.6 4.3-2.5-.9 4.8-2.2 1.3 1.7 4.8h-6.6l-.6-1.6c-2.5 1.5-4.7 2.2-6.7 2.2-2.1 0-3.5-.7-4.4-2.1s-1.1-3-.8-5c.3-1.6.8-2.8 1.6-3.7s1.9-1.6 3.3-2.2c-1.6-1.4-2.3-3.2-1.9-5.5.4-2 1.3-3.6 2.9-4.8 1.7-1.1 3.6-1.7 6-1.7m-1.5 8.5c1-1.1 1.6-2.1 1.7-3 .1-.4 0-.8-.2-1.1s-.5-.5-.9-.5-.7.1-1 .4c-.2.3-.4.7-.5 1.2-.1 1 .2 2.1.9 3m-2.5 11.8c.6 0 1.3-.3 2.1-.8l-1.6-3.9c-1 .8-1.6 1.7-1.8 2.6-.1.7-.1 1.2.1 1.5.3.5.7.6 1.2.6m4-22.5c-2.8 0-5.3.8-7.2 2.3-2 1.6-3.2 3.6-3.7 6.2-.3 1.9-.1 3.7.7 5.2-.6.4-1.1.9-1.6 1.4-1.1 1.2-1.8 2.8-2.2 4.8-.4 2.5-.1 4.7 1.1 6.5.9 1.4 2.7 3.1 6.3 3.1 1.7 0 3.6-.5 5.6-1.4.4.5 1 .8 1.6.8h6.6c.7 0 1.4-.3 1.8-.9s.5-1.3.3-2l-1.1-3.1.6-.4c.6-.3 1-.9 1.1-1.5l.9-4.8c.1-.8-.2-1.7-.9-2.2-.4-.3-.8-.4-1.3-.4-.4 0-.8.1-1.1.3l-2.1 1.2-.3-.8c1.5-1.6 2.4-3.4 2.7-5.3.5-3.1-.5-5.2-1.5-6.3q-2.1-2.7-6.3-2.7"/>
        <linearGradient y2="84.445" x2="105.143" y1="46.867" x1="105.143" gradientUnits="userSpaceOnUse" id="7ebedfd3-00ca-4ee0-9589-297d03a75f3b">
            <stop offset=".486" stop-color="#ffffff"/>
            <stop offset=".548" stop-color="#dfdfdf"/>
            <stop offset=".61" stop-color="#c6c6c6"/>
            <stop offset=".667" stop-color="#b8b8b8"/>
            <stop offset=".714" stop-color="#b3b3b3"/>
        </linearGradient>
        <path d="M116.6 63.3h-9.4l1.1-6.3c.3-1.8.4-3 .3-3.4-.1-.5-.5-.7-1.2-.7-.8 0-1.3.3-1.6.8q-.45.75-.9 3.6l-3 16.8c-.3 1.8-.4 2.9-.3 3.4s.5.8 1.3.8c.7 0 1.2-.3 1.5-.8s.6-1.8 1-3.8l.8-4.5h9.4l-.2 1.4c-.7 3.7-1.4 6.4-2.2 7.9-.8 1.6-2.2 2.9-4.2 4.1s-4.3 1.8-7 1.8-4.9-.5-6.5-1.5-2.5-2.4-2.8-4.1c-.3-1.8-.1-4.4.5-7.9L95 60.3c.5-2.6.9-4.5 1.3-5.8s1.2-2.6 2.3-3.8 2.5-2.1 4.2-2.8 3.6-1 5.6-1c2.8 0 4.9.5 6.6 1.6 1.6 1.1 2.6 2.4 2.8 4s.1 4.1-.5 7.4z" fill="url(#7ebedfd3-00ca-4ee0-9589-297d03a75f3b)"/>
        <path d="M108.3 46.9c2.8 0 4.9.5 6.6 1.6 1.6 1.1 2.6 2.4 2.8 4 .3 1.6.1 4.1-.5 7.4l-.6 3.4h-9.4l1.1-6.3c.3-1.8.4-3 .3-3.4-.1-.5-.5-.7-1.2-.7-.8 0-1.3.3-1.6.8q-.45.75-.9 3.6l-3 16.8c-.3 1.8-.4 2.9-.3 3.4s.5.8 1.3.8c.7 0 1.2-.3 1.5-.8s.6-1.8 1-3.8l.8-4.5h9.4l-.2 1.4c-.7 3.7-1.4 6.4-2.2 7.9-.8 1.6-2.2 2.9-4.2 4.1s-4.3 1.8-7 1.8-4.9-.5-6.5-1.5-2.5-2.4-2.8-4.1c-.3-1.8-.1-4.4.5-7.9L95 60.3c.5-2.6.9-4.5 1.3-5.8s1.2-2.6 2.3-3.8 2.5-2.1 4.2-2.8c1.6-.7 3.5-1 5.5-1m0-2.2c-2.3 0-4.5.4-6.4 1.2-2 .8-3.7 2-5 3.4s-2.2 3-2.7 4.6c-.4 1.4-.9 3.4-1.4 6.1L91 70.5c-.7 3.8-.8 6.6-.5 8.6.4 2.4 1.7 4.3 3.8 5.7 2 1.2 4.5 1.8 7.7 1.8q4.5 0 8.1-2.1c2.4-1.4 4.1-3.1 5.1-5 .9-1.8 1.7-4.6 2.4-8.6l.2-1.4c.1-.6-.1-1.3-.5-1.8s-1-.8-1.7-.8h-9.4c-.3 0-.6.1-.8.2l.4-2.3q.6.6 1.5.6h9.4c1.1 0 2-.8 2.2-1.8l.6-3.4c.6-3.7.8-6.3.5-8.2-.4-2.2-1.7-4-3.8-5.4-2.1-1.3-4.7-1.9-7.9-1.9"/>
        <linearGradient y2="84.445" x2="129.856" y1="46.867" x1="129.856" gradientUnits="userSpaceOnUse" id="4e681fdb-4925-4845-ad34-a7cf5f9ac114">
            <stop offset=".486" stop-color="#ffffff"/>
            <stop offset=".548" stop-color="#dfdfdf"/>
            <stop offset=".61" stop-color="#c6c6c6"/>
            <stop offset=".667" stop-color="#b8b8b8"/>
            <stop offset=".714" stop-color="#b3b3b3"/>
        </linearGradient>
        <path d="M140.2 68.7c-.6 3.6-1.2 6.2-1.6 7.7s-1.2 2.9-2.3 4.1-2.5 2.2-4.1 2.9-3.5 1-5.5 1c-1.9 0-3.6-.3-5-.9s-2.5-1.6-3.2-2.8c-.7-1.3-1-2.6-.9-4.1s.5-4.1 1.1-7.8l1.1-6.2c.6-3.6 1.2-6.2 1.6-7.7s1.2-2.9 2.3-4.1 2.5-2.2 4.1-2.9 3.5-1 5.5-1c1.9 0 3.6.3 5 .9s2.5 1.6 3.2 2.8c.7 1.3 1 2.6.9 4.1s-.5 4.1-1.1 7.8zm-7.3-11.8c.3-1.7.4-2.8.3-3.2-.1-.5-.4-.7-1-.7q-.75 0-1.2.6c-.3.4-.7 1.5-1 3.4l-3 16.8c-.4 2.1-.5 3.4-.4 3.9s.4.7 1.1.7c.6 0 1.1-.3 1.4-.8.3-.6.6-1.9 1-4z" fill="url(#4e681fdb-4925-4845-ad34-a7cf5f9ac114)"/>
        <path d="M133.2 46.9c1.9 0 3.6.3 5 .9s2.5 1.6 3.2 2.8c.7 1.3 1 2.6.9 4.1s-.5 4.1-1.1 7.8l-1.1 6.2c-.6 3.6-1.2 6.2-1.6 7.7s-1.2 2.9-2.3 4.1-2.5 2.2-4.1 2.9-3.5 1-5.5 1c-1.9 0-3.6-.3-5-.9s-2.5-1.6-3.2-2.8c-.7-1.3-1-2.6-.9-4.1s.5-4.1 1.1-7.8l1.1-6.2c.6-3.6 1.2-6.2 1.6-7.7s1.2-2.9 2.3-4.1 2.5-2.2 4.1-2.9 3.4-1 5.5-1m-5.6 31.4c.6 0 1.1-.3 1.4-.8.3-.6.6-1.9 1-4l2.9-16.6c.3-1.7.4-2.8.3-3.2-.1-.5-.4-.7-1-.7q-.75 0-1.2.6c-.3.4-.7 1.5-1 3.4l-3 16.8c-.4 2.1-.5 3.4-.4 3.9 0 .4.4.6 1 .6m5.6-33.6q-3.45 0-6.3 1.2c-2 .8-3.6 1.9-5 3.4-1.3 1.5-2.3 3.2-2.8 5-.5 1.6-1 4.2-1.7 7.9l-1.1 6.2c-.7 3.8-1 6.5-1.1 8.1-.1 1.9.3 3.7 1.2 5.3.9 1.7 2.4 2.9 4.2 3.8 1.7.8 3.7 1.1 5.9 1.1q3.45 0 6.3-1.2c2-.8 3.6-1.9 5-3.4 1.3-1.5 2.3-3.2 2.8-5 .5-1.6 1-4.2 1.7-7.9l1.1-6.2c.7-3.8 1-6.5 1.1-8.1.1-1.9-.3-3.7-1.2-5.3-.9-1.7-2.4-2.9-4.2-3.8-1.7-.7-3.7-1.1-5.9-1.1"/>
        <linearGradient y2="84.445" x2="154.429" y1="46.867" x1="154.429" gradientUnits="userSpaceOnUse" id="c3dbfeee-05d7-468d-b6ff-8c9f37ce3846">
            <stop offset=".486" stop-color="#ffffff"/>
            <stop offset=".548" stop-color="#dfdfdf"/>
            <stop offset=".61" stop-color="#c6c6c6"/>
            <stop offset=".667" stop-color="#b8b8b8"/>
            <stop offset=".714" stop-color="#b3b3b3"/>
        </linearGradient>
        <path d="M164.7 68.7c-.6 3.6-1.2 6.2-1.6 7.7s-1.2 2.9-2.3 4.1-2.5 2.2-4.1 2.9-3.5 1-5.5 1c-1.9 0-3.6-.3-5-.9s-2.5-1.6-3.2-2.8c-.7-1.3-1-2.6-.9-4.1s.5-4.1 1.1-7.8l1.1-6.2c.6-3.6 1.2-6.2 1.6-7.7s1.2-2.9 2.3-4.1 2.5-2.2 4.1-2.9 3.5-1 5.5-1c1.9 0 3.6.3 5 .9s2.5 1.6 3.2 2.8c.7 1.3 1 2.6.9 4.1s-.5 4.1-1.1 7.8zm-7.3-11.8c.3-1.7.4-2.8.3-3.2-.1-.5-.4-.7-1-.7q-.75 0-1.2.6c-.3.4-.7 1.5-1 3.4l-3 16.8c-.4 2.1-.5 3.4-.4 3.9s.4.7 1.1.7c.6 0 1.1-.3 1.4-.8.3-.6.6-1.9 1-4z" fill="url(#c3dbfeee-05d7-468d-b6ff-8c9f37ce3846)"/>
        <path d="M157.7 46.9c1.9 0 3.6.3 5 .9s2.5 1.6 3.2 2.8c.7 1.3 1 2.6.9 4.1s-.5 4.1-1.1 7.8l-1.1 6.2c-.6 3.6-1.2 6.2-1.6 7.7s-1.2 2.9-2.3 4.1-2.5 2.2-4.1 2.9-3.5 1-5.5 1c-1.9 0-3.6-.3-5-.9s-2.5-1.6-3.2-2.8c-.7-1.3-1-2.6-.9-4.1s.5-4.1 1.1-7.8l1.1-6.2c.6-3.6 1.2-6.2 1.6-7.7s1.2-2.9 2.3-4.1 2.5-2.2 4.1-2.9c1.7-.7 3.5-1 5.5-1m-5.5 31.4c.6 0 1.1-.3 1.4-.8.3-.6.6-1.9 1-4l2.9-16.6c.3-1.7.4-2.8.3-3.2-.1-.5-.4-.7-1-.7q-.75 0-1.2.6c-.3.4-.7 1.5-1 3.4l-3 16.8c-.4 2.1-.5 3.4-.4 3.9 0 .4.3.6 1 .6m5.5-33.6q-3.45 0-6.3 1.2c-2 .8-3.6 1.9-5 3.4-1.3 1.5-2.3 3.2-2.8 5-.5 1.6-1 4.2-1.7 7.9l-1.1 6.2c-.7 3.8-1 6.5-1.1 8.1-.1 1.9.3 3.7 1.2 5.3.9 1.7 2.4 2.9 4.2 3.8 1.7.8 3.7 1.1 5.9 1.1q3.45 0 6.3-1.2c2-.8 3.6-1.9 5-3.4 1.3-1.5 2.3-3.2 2.8-5 .5-1.6 1-4.2 1.7-7.9L168 63c.7-3.8 1-6.5 1.1-8.1.1-1.9-.3-3.7-1.2-5.3-.9-1.7-2.4-2.9-4.2-3.8-1.7-.7-3.7-1.1-6-1.1"/>
        <linearGradient y2="83.687" x2="173.379" y1="47.625" x1="173.379" gradientUnits="userSpaceOnUse" id="f745244c-fe59-4190-9774-c8a8e7300250">
            <stop offset=".486" stop-color="#ffffff"/>
            <stop offset=".548" stop-color="#dfdfdf"/>
            <stop offset=".61" stop-color="#c6c6c6"/>
            <stop offset=".667" stop-color="#b8b8b8"/>
            <stop offset=".714" stop-color="#b3b3b3"/>
        </linearGradient>
        <path d="m180.9 47.6-5.1 28.8h5.7l-1.3 7.2h-15.1l6.4-36.1h9.4z" fill="url(#f745244c-fe59-4190-9774-c8a8e7300250)"/>
        <path d="m180.9 47.6-5.1 28.8h5.7l-1.3 7.2h-15.1l6.4-36.1h9.4m0-2.1h-9.4c-1.1 0-2 .8-2.2 1.8l-6.4 36.1c-.1.6.1 1.3.5 1.8s1 .8 1.7.8h15.1c1.1 0 2-.8 2.2-1.8l1.3-7.2c.1-.6-.1-1.3-.5-1.8s-1-.8-1.7-.8h-3.1L183 48c.1-.6-.1-1.3-.5-1.8-.3-.5-.9-.8-1.6-.8"/>
        <linearGradient y2="83.687" x2="190.57" y1="47.625" x1="190.57" gradientUnits="userSpaceOnUse" id="a2ca00a1-e34f-4f71-bfcb-925e68d639d0">
            <stop offset=".486" stop-color="#ffffff"/>
            <stop offset=".548" stop-color="#dfdfdf"/>
            <stop offset=".61" stop-color="#c6c6c6"/>
            <stop offset=".667" stop-color="#b8b8b8"/>
            <stop offset=".714" stop-color="#b3b3b3"/>
        </linearGradient>
        <path d="M198.4 47.6 192 83.7h-9.4l6.4-36.1z" fill="url(#a2ca00a1-e34f-4f71-bfcb-925e68d639d0)"/>
        <path d="M198.4 47.6 192 83.7h-9.4l6.4-36.1zm0-2.2H189c-1.1 0-2 .8-2.2 1.8l-6.4 36.1c-.1.6.1 1.3.5 1.8s1 .8 1.7.8h9.4c1.1 0 2-.8 2.2-1.8l6.4-36.1c.1-.6-.1-1.3-.5-1.8s-1-.8-1.7-.8"/>
        <linearGradient y2="83.687" x2="209.049" y1="47.625" x1="209.049" gradientUnits="userSpaceOnUse" id="c4148d67-d333-42ec-b58a-d977b5c0e5bb">
            <stop offset=".486" stop-color="#ffffff"/>
            <stop offset=".548" stop-color="#dfdfdf"/>
            <stop offset=".61" stop-color="#c6c6c6"/>
            <stop offset=".667" stop-color="#b8b8b8"/>
            <stop offset=".714" stop-color="#b3b3b3"/>
        </linearGradient>
        <path d="m222.7 47.6-6.4 36.1h-8.2l-2-16.4-2.9 16.4h-7.8l6.4-36.1h7.8l2.4 16.2 2.9-16.2z" fill="url(#c4148d67-d333-42ec-b58a-d977b5c0e5bb)"/>
        <path d="m222.7 47.6-6.4 36.1h-8.2l-2-16.4-2.9 16.4h-7.8l6.4-36.1h7.8l2.4 16.2 2.9-16.2zm0-2.2h-7.8c-1.1 0-2 .8-2.2 1.8l-.5 2.9-.4-2.9c-.2-1.1-1.1-1.9-2.2-1.9h-7.8c-1.1 0-2 .8-2.2 1.8l-6.4 36.1c-.1.6.1 1.3.5 1.8s1 .8 1.7.8h7.8c1.1 0 2-.8 2.2-1.8l.3-1.9.3 1.9c.1 1.1 1.1 1.9 2.2 1.9h8.2c1.1 0 2-.8 2.2-1.8L225 48c.1-.6-.1-1.3-.5-1.8-.5-.5-1.2-.8-1.8-.8"/>
        <linearGradient y2="84.445" x2="233.462" y1="46.867" x1="233.462" gradientUnits="userSpaceOnUse" id="d960aecb-7864-414d-b044-f8316c679f47">
            <stop offset=".486" stop-color="#ffffff"/>
            <stop offset=".548" stop-color="#dfdfdf"/>
            <stop offset=".61" stop-color="#c6c6c6"/>
            <stop offset=".667" stop-color="#b8b8b8"/>
            <stop offset=".714" stop-color="#b3b3b3"/>
        </linearGradient>
        <path d="M245.2 60.9h-9.4l.6-3.3c.4-2.1.5-3.4.4-3.9s-.5-.8-1.1-.8-1 .2-1.3.7-.6 1.6-.9 3.4l-3.1 17.3c-.3 1.6-.4 2.7-.3 3.2s.5.8 1.1.8q1.05 0 1.5-.9c.3-.6.7-1.7 1-3.4l.8-4.3h-1.9l1-5.5h11l-3.4 19.4h-5.9l-.4-2.6c-.8 1.1-1.8 1.9-2.9 2.5s-2.3.8-3.6.8c-1.6 0-3-.4-4.2-1.1-1.2-.8-2.1-1.7-2.6-2.8s-.8-2.3-.7-3.6c0-1.2.3-3.1.7-5.6l1.9-10.7c.6-3.4 1.2-5.9 1.9-7.5.6-1.6 2-3 4-4.3s4.4-1.9 7.2-1.9c2.7 0 4.9.6 6.5 1.7s2.6 2.5 2.8 4c.3 1.6.2 3.8-.4 6.8z" fill="url(#d960aecb-7864-414d-b044-f8316c679f47)"/>
        <path d="M236.5 46.9c2.7 0 4.9.6 6.5 1.7s2.6 2.5 2.8 4c.3 1.6.2 3.8-.4 6.8l-.3 1.6h-9.4l.6-3.3c.4-2.1.5-3.4.4-3.9s-.5-.8-1.1-.8-1 .2-1.3.7c-.3.4-.6 1.6-.9 3.4l-3.1 17.3c-.3 1.6-.4 2.7-.3 3.2s.5.8 1.1.8q1.05 0 1.5-.9c.3-.6.7-1.7 1-3.4l.8-4.3h-1.9l1-5.5h11l-3.4 19.4h-5.9l-.4-2.6c-.8 1.1-1.8 1.9-2.9 2.5s-2.3.8-3.6.8c-1.6 0-3-.4-4.2-1.1-1.2-.8-2.1-1.7-2.6-2.8s-.8-2.3-.7-3.6c0-1.2.3-3.1.7-5.6l1.9-10.7c.6-3.4 1.2-5.9 1.9-7.5s2-3 4-4.3 4.4-1.9 7.2-1.9m0-2.2c-3.2 0-6 .8-8.4 2.3s-4 3.3-4.8 5.3c-.7 1.7-1.4 4.3-2 8L219.4 71c-.5 2.6-.7 4.5-.7 5.9-.1 1.6.3 3.1.9 4.5.7 1.5 1.9 2.8 3.5 3.8q2.4 1.5 5.4 1.5c1.7 0 3.2-.4 4.6-1.1.2-.1.4-.2.7-.4.4.4 1 .7 1.6.7h5.9c1.1 0 2-.8 2.2-1.8l3.4-19.4c.1-.6-.1-1.3-.5-1.8 0 0 0-.1-.1-.1.6-.3 1-.9 1.2-1.6l.3-1.6c.6-3.2.7-5.7.4-7.5-.4-2.1-1.6-4-3.7-5.4-2.2-1.3-4.8-2-8-2"/>
    </g>
</svg>
