<svg xmlns="http://www.w3.org/2000/svg" viewBox="0 0 1000 1000" width="1000" height="1000">
  <rect width="1000" height="1000" rx="200" ry="200" fill="#000000"/>
  <svg x="50" y="222" width="900" height="556" viewBox="0 0 1391.72 888">
    <g id="layer-MC0">
      <path d="m 0,0 v -43.742 h 11.942 c 5.635,0 10.555,2.09 14.759,6.273 4.204,4.181 6.307,9.402 6.307,15.665 0,6.216 -2.103,11.405 -6.307,15.565 C 22.497,-2.08 17.577,0 11.942,0 Z M 11.338,-54.343 H 0 V -85.942 H -12.143 V 10.6 h 27.641 c 8.05,-1.074 14.781,-4.339 20.193,-9.795 6.307,-6.306 9.46,-13.844 9.46,-22.609 0,-8.812 -3.243,-16.46 -9.728,-22.945 -4.294,-4.339 -8.096,-6.91 -11.405,-7.715 l 21.67,-33.478 H 31.666 Z" style="fill:#ffffff;fill-opacity:1;fill-rule:nonzero;stroke:none" transform="matrix(1.3333333,0,0,-1.3333333,124.49413,547.95707)"/>
      <path d="M 0,0 V -10.533 H -40.388 V -43.004 H 0 V -53.538 H -40.388 V -86.009 H 0 V -96.542 H -52.531 V 0 Z" style="fill:#ffffff;fill-opacity:1;fill-rule:nonzero;stroke:none" transform="matrix(1.3333333,0,0,-1.3333333,271.46413,533.8236)"/>
      <path d="m 0,0 c -6.933,2.281 -12.501,5.523 -16.705,9.728 -4.205,4.204 -6.306,9.28 -6.306,15.23 0,5.813 2.179,10.923 6.541,15.329 4.361,4.405 9.783,6.609 16.269,6.609 6.395,0 11.875,-2.26 16.437,-6.777 2.37,-2.326 4.227,-5.591 5.569,-9.795 L 10.936,26.098 c -1.342,3.622 -2.55,5.97 -3.623,7.044 -2.192,2.236 -4.696,3.354 -7.514,3.354 -2.774,0 -5.245,-1.084 -7.414,-3.253 -2.169,-2.17 -3.254,-4.931 -3.254,-8.285 0,-3.312 1.118,-6.129 3.355,-8.455 2.326,-2.236 5.501,-4.293 9.527,-6.171 7.692,-2.506 14.133,-6.352 19.321,-11.54 5.948,-5.904 8.923,-12.881 8.923,-20.932 0,-8.05 -2.941,-15.017 -8.822,-20.898 -5.882,-5.882 -13.094,-8.822 -21.636,-8.822 -8.588,0 -15.856,3.019 -21.804,9.057 -4.653,4.606 -7.515,10.577 -8.588,17.913 l 11.674,4.226 c 0.715,-7.022 2.706,-12.143 5.971,-15.363 3.578,-3.579 7.826,-5.368 12.747,-5.368 4.964,0 9.292,1.846 12.981,5.536 3.691,3.69 5.535,8.262 5.535,13.719 0,5.456 -1.811,9.996 -5.434,13.619 C 9.213,-4.898 4.919,-2.058 0,0" style="fill:#ffffff;fill-opacity:1;fill-rule:nonzero;stroke:none" transform="matrix(1.3333333,0,0,-1.3333333,327.19333,594.83013)"/>
      <path d="m 0,0 c -6.933,2.281 -12.501,5.523 -16.705,9.728 -4.205,4.204 -6.307,9.28 -6.307,15.23 0,5.813 2.18,10.923 6.542,15.329 4.361,4.405 9.783,6.609 16.269,6.609 6.395,0 11.875,-2.26 16.437,-6.777 2.37,-2.326 4.227,-5.591 5.568,-9.795 L 10.936,26.098 c -1.342,3.622 -2.55,5.97 -3.623,7.044 -2.192,2.236 -4.696,3.354 -7.514,3.354 -2.774,0 -5.245,-1.084 -7.414,-3.253 -2.169,-2.17 -3.254,-4.931 -3.254,-8.285 0,-3.312 1.118,-6.129 3.355,-8.455 2.326,-2.236 5.501,-4.293 9.527,-6.171 7.692,-2.506 14.133,-6.352 19.321,-11.54 5.948,-5.904 8.923,-12.881 8.923,-20.932 0,-8.05 -2.941,-15.017 -8.822,-20.898 -5.882,-5.882 -13.094,-8.822 -21.636,-8.822 -8.588,0 -15.856,3.019 -21.804,9.057 -4.653,4.606 -7.515,10.577 -8.588,17.913 l 11.674,4.226 c 0.715,-7.022 2.706,-12.143 5.971,-15.363 3.578,-3.579 7.826,-5.368 12.747,-5.368 4.964,0 9.291,1.846 12.981,5.536 3.691,3.69 5.535,8.262 5.535,13.719 0,5.456 -1.811,9.996 -5.434,13.619 C 9.213,-4.898 4.919,-2.058 0,0" style="fill:#ffffff;fill-opacity:1;fill-rule:nonzero;stroke:none" transform="matrix(1.3333333,0,0,-1.3333333,418.16667,594.83013)"/>
      <path d="m 0,0 8.453,-7.514 c -10.868,-9.885 -22.833,-14.827 -35.892,-14.827 -14.045,0 -25.909,4.841 -35.591,14.525 -9.684,9.683 -14.525,21.301 -14.525,34.853 0,13.418 4.841,25.002 14.525,34.753 9.682,9.75 21.546,14.625 35.591,14.625 13.059,0 25.024,-4.964 35.892,-14.894 L 0,54.007 c -8.856,7.826 -18.003,11.741 -27.439,11.741 -10.288,0 -19.178,-3.747 -26.669,-11.238 -7.491,-7.492 -11.237,-16.65 -11.237,-27.473 0,-10.913 3.746,-20.105 11.237,-27.574 7.491,-7.47 16.381,-11.204 26.669,-11.204 9.436,0 18.583,3.913 27.439,11.741" style="fill:#ffffff;fill-opacity:1;fill-rule:nonzero;stroke:none" transform="matrix(1.3333333,0,0,-1.3333333,573.4564,634.18947)"/>
      <path d="m 0,0 c -10.288,0 -19.188,-3.768 -26.702,-11.304 -7.514,-7.537 -11.271,-16.717 -11.271,-27.54 0,-10.914 3.757,-20.127 11.271,-27.641 C -19.188,-74 -10.288,-77.756 0,-77.756 c 10.332,0 19.254,3.756 26.769,11.271 7.514,7.514 11.271,16.727 11.271,27.641 0,10.823 -3.757,20.003 -11.271,27.54 C 19.254,-3.768 10.332,0 0,0 m 35.658,-4.025 c 9.728,-9.751 14.592,-21.358 14.592,-34.819 0,-13.552 -4.864,-25.193 -14.592,-34.92 C 25.93,-83.493 14.043,-88.356 0,-88.356 c -14,0 -25.863,4.863 -35.591,14.592 -9.728,9.727 -14.592,21.368 -14.592,34.92 0,13.461 4.864,25.068 14.592,34.819 C -25.863,5.725 -14,10.601 0,10.601 c 14.043,0 25.93,-4.876 35.658,-14.626" style="fill:#ffffff;fill-opacity:1;fill-rule:nonzero;stroke:none" transform="matrix(1.3333333,0,0,-1.3333333,662.8196,546.16867)"/>
      <path d="M 0,0 V -94.865 H -5.367 V -5.77 L -42.064,-53.873 -78.83,-5.77 v -89.095 h -5.367 V 0 h 7.782 L -42.064,-44.95 -7.782,0 Z" style="fill:#ffffff;fill-opacity:1;fill-rule:nonzero;stroke:none" transform="matrix(1.3333333,0,0,-1.3333333,856.03707,536.05987)"/>
      <path d="M 0,0 V -5.367 H -42.066 V -44.749 H 0 v -5.367 H -42.066 V -89.498 H 0 v -5.367 H -47.434 V 0 Z" style="fill:#ffffff;fill-opacity:1;fill-rule:nonzero;stroke:none" transform="matrix(1.3333333,0,0,-1.3333333,937.61853,536.05987)"/>
      <path d="M 0,0 V -89.498 H -5.301 V 0 H -29.318 V 5.367 H 24.018 V 0 Z" style="fill:#ffffff;fill-opacity:1;fill-rule:nonzero;stroke:none" transform="matrix(1.3333333,0,0,-1.3333333,989.58987,543.21613)"/>
      <path d="M 0,0 -14.425,39.784 -28.915,0 Z M -11.674,47.835 22.743,-47.03 H 17.108 L 1.945,-5.3 H -30.86 l -15.432,-41.73 h -5.702 l 34.819,94.865 z" style="fill:#ffffff;fill-opacity:1;fill-rule:nonzero;stroke:none" transform="matrix(1.3333333,0,0,-1.3333333,1087.1823,599.83987)"/>
      <path d="M 0,0 V 94.865 H 5.367 V 5.367 H 41.528 V 0 Z" style="fill:#ffffff;fill-opacity:1;fill-rule:nonzero;stroke:none" transform="matrix(1.3333333,0,0,-1.3333333,1127.7943,662.54627)"/>
      <path d="m 0,0 c -6.754,2.236 -12.087,5.311 -16.001,9.225 -3.914,3.913 -5.87,8.665 -5.87,14.256 0,5.457 1.956,10.153 5.87,14.089 3.914,3.935 8.665,5.904 14.256,5.904 5.503,0 10.242,-1.969 14.224,-5.904 2.147,-2.103 3.644,-4.451 4.494,-7.044 l -4.83,-1.879 c -0.716,1.923 -1.878,3.69 -3.489,5.3 -2.862,2.862 -6.329,4.294 -10.399,4.294 -4.07,0 -7.547,-1.432 -10.432,-4.294 -2.885,-2.863 -4.327,-6.351 -4.327,-10.466 0,-4.07 1.431,-7.559 4.294,-10.466 2.684,-2.64 6.395,-5.055 11.136,-7.245 7.603,-2.46 13.999,-6.285 19.188,-11.473 5.456,-5.457 8.185,-12.054 8.185,-19.791 0,-7.782 -2.74,-14.424 -8.218,-19.926 -5.479,-5.501 -12.089,-8.251 -19.826,-8.251 -7.781,0 -14.401,2.772 -19.859,8.319 -4.426,4.382 -7.067,9.481 -7.915,15.296 l 5.031,1.811 c 0.537,-5.144 2.728,-9.617 6.575,-13.418 4.472,-4.472 9.862,-6.708 16.168,-6.708 6.308,0 11.696,2.236 16.17,6.708 4.471,4.472 6.709,9.862 6.709,16.169 0,6.262 -2.238,11.628 -6.709,16.101 C 10.488,-5.457 5.68,-2.326 0,0" style="fill:#ffffff;fill-opacity:1;fill-rule:nonzero;stroke:none" transform="matrix(1.3333333,0,0,-1.3333333,1232.0951,592.50453)"/>
      <path d="m 0,0 c 29.145,0.186 58.282,0.72 87.417,1.05 0.017,-23.48 0,-46.96 0.01,-70.44 -0.525,-49.956 0.091,-99.948 -0.418,-149.904 6.681,0.118 13.362,-0.364 20.051,-0.22 -1.548,13.005 -0.505,26.215 1.948,39.042 3.405,17.223 10.051,34.073 21.015,47.925 8.002,10.279 18.653,18.382 30.508,23.734 20.381,9.187 43.252,10.694 65.294,9.381 0.144,-29.957 0.872,-59.905 0.812,-89.863 -8.324,0.144 -16.631,-0.246 -24.936,-0.246 0.024,-9.355 -0.11,-18.712 -0.425,-28.06 10.17,0.008 20.33,0.483 30.508,0.415 -0.077,-3.462 0.221,-6.917 0.228,-10.381 -14.181,0.017 -28.366,0.009 -42.54,0 0.037,16.291 -0.431,32.566 -0.455,48.848 8.389,0.499 16.797,0.186 25.197,0.271 -0.371,22.65 0.017,45.325 -0.421,67.984 -13.692,-0.187 -27.563,-1.372 -40.568,-5.936 -12.082,-4.124 -23.319,-11.168 -31.55,-21.007 -9.238,-10.813 -15.113,-24.157 -18.484,-37.883 -3.588,-14.944 -4.715,-30.481 -3.378,-45.799 0.083,-2.219 0.772,-4.352 1.785,-6.334 -15.401,-0.33 -30.819,-0.042 -46.23,-0.144 -0.023,42.828 0,85.647 -0.011,128.465 0.088,29.451 0.315,58.899 0.222,88.357 -21.05,-0.144 -42.082,-0.466 -63.122,-0.779 0.11,-17.603 0.05,-35.216 -0.179,-52.82 -0.025,-41.489 0.126,-82.987 -0.213,-124.476 -0.049,-12.921 0.105,-25.85 -0.075,-38.771 -32.38,0.143 -64.766,-0.119 -97.145,0.126 0.136,8.366 0.009,16.74 0.059,25.106 -0.1,2.158 1.541,3.793 2.465,5.596 15.503,26.554 31.108,53.056 46.545,79.644 0.753,5.274 0.084,10.778 0.313,16.139 -25.265,0.008 -50.524,0.008 -75.783,0 -0.127,-6.089 0.23,-12.21 -0.152,-18.29 -15.487,-27.645 -31.583,-54.986 -46.994,-82.667 -0.185,-8.542 0.051,-17.103 -0.101,-25.646 -159.439,0.05 -318.868,0.008 -478.307,0.016 -0.339,3.878 -0.28,7.765 -0.271,11.643 24.208,-0.068 48.415,0.212 72.615,-0.204 86.916,-0.025 173.832,0.06 260.758,-0.041 44.479,-0.457 88.982,0.059 133.478,-0.254 0.509,5.215 -0.399,10.583 0.457,15.723 15.529,28.111 31.448,56.028 46.951,84.139 0.322,8.637 0.034,17.308 0.136,25.953 32.879,0.008 65.757,0.016 98.643,0 -0.058,-9.586 0.119,-19.179 -0.085,-28.764 -16.146,-27.519 -32.945,-54.706 -49.111,-82.217 -0.312,-5.75 -0.04,-11.524 -0.117,-17.282 24.394,0.059 48.798,0.391 73.191,0.602 0.424,41.133 0.203,82.285 0.255,123.427 C 0.221,-63.233 -0.1,-31.617 0,0" style="fill:#ff0000;fill-opacity:1;fill-rule:nonzero;stroke:none" transform="matrix(1.3333333,0,0,-1.3333333,956.24093,207.31507)"/>
    </g>
  </svg>
</svg>
